<svg xmlns="http://www.w3.org/2000/svg" width="1200" height="630" viewBox="0 0 1200 630">
  <defs>
    <linearGradient id="bg3" x1="0" y1="0" x2="1" y2="1">
      <stop offset="0" stop-color="#f8fafc"/>
      <stop offset="1" stop-color="#ecfeff"/>
    </linearGradient>
  </defs>
  <rect width="1200" height="630" fill="url(#bg3)"/>
  <rect x="60" y="60" width="1080" height="510" rx="24" fill="#ffffff" stroke="#cbd5e1" stroke-width="2"/>

  <text x="96" y="130" font-family="ui-sans-serif, system-ui, -apple-system, Segoe UI, Roboto" font-size="42" fill="#0f172a">Template Architecture</text>
  <text x="96" y="178" font-family="ui-sans-serif, system-ui, -apple-system, Segoe UI, Roboto" font-size="22" fill="#475569">Config flow, coordinator, storage, entities, services, websocket, diagnostics</text>

  <g font-family="ui-sans-serif, system-ui, -apple-system, Segoe UI, Roboto">
    <rect x="100" y="230" width="270" height="70" rx="14" fill="#eff6ff" stroke="#bfdbfe"/>
    <text x="122" y="274" font-size="22" fill="#1e3a8a">config_flow.py</text>

    <rect x="430" y="230" width="320" height="70" rx="14" fill="#f1f5f9" stroke="#e2e8f0"/>
    <text x="452" y="274" font-size="22" fill="#0f172a">coordinator.py</text>

    <rect x="810" y="210" width="300" height="70" rx="14" fill="#ecfccb" stroke="#bef264"/>
    <text x="832" y="254" font-size="22" fill="#365314">api.py (IO)</text>

    <rect x="810" y="290" width="300" height="70" rx="14" fill="#fff7ed" stroke="#fed7aa"/>
    <text x="832" y="334" font-size="22" fill="#7c2d12">storage.py</text>

    <rect x="430" y="330" width="320" height="70" rx="14" fill="#fdf2f8" stroke="#fbcfe8"/>
    <text x="452" y="374" font-size="22" fill="#831843">sensor.py</text>

    <rect x="100" y="330" width="270" height="70" rx="14" fill="#f1f5f9" stroke="#e2e8f0"/>
    <text x="122" y="374" font-size="22" fill="#0f172a">services.py</text>

    <rect x="100" y="420" width="270" height="70" rx="14" fill="#f1f5f9" stroke="#e2e8f0"/>
    <text x="122" y="464" font-size="22" fill="#0f172a">websocket_api.py</text>

    <rect x="430" y="420" width="320" height="70" rx="14" fill="#f1f5f9" stroke="#e2e8f0"/>
    <text x="452" y="464" font-size="22" fill="#0f172a">diagnostics.py</text>
  </g>

  <g stroke="#94a3b8" stroke-width="3" fill="none">
    <path d="M370 265 L430 265" />
    <path d="M750 265 L810 245" />
    <path d="M750 265 L810 325" />
    <path d="M590 300 L590 330" />
    <path d="M235 300 L235 330" />
    <path d="M235 400 L235 420" />
    <path d="M590 400 L590 420" />
  </g>
</svg>

