<svg xmlns="http://www.w3.org/2000/svg" width="800" height="1200" viewBox="0 0 800 1200">
  <defs>
    <linearGradient id="bg" x1="0" y1="0" x2="1" y2="1">
      <stop offset="0" stop-color="#f3f4f6"/>
      <stop offset="1" stop-color="#e5e7eb"/>
    </linearGradient>
    <linearGradient id="card" x1="0" y1="0" x2="0" y2="1">
      <stop offset="0" stop-color="#ffffff"/>
      <stop offset="1" stop-color="#fafafa"/>
    </linearGradient>
  </defs>

  <rect width="800" height="1200" fill="url(#bg)"/>

  <!-- Phone frame -->
  <rect x="160" y="40" width="480" height="1120" rx="42" fill="#111827" opacity="0.92"/>
  <rect x="182" y="78" width="436" height="1044" rx="28" fill="#f8fafc"/>

  <!-- Header -->
  <rect x="182" y="78" width="436" height="60" rx="28" fill="#ffffff"/>
  <text x="206" y="116" font-family="ui-sans-serif, system-ui, -apple-system, Segoe UI, Roboto" font-size="18" fill="#111827">Weekly Training</text>

  <!-- Single column stack -->
  <g transform="translate(204,155)">
    <rect x="0" y="0" width="392" height="380" rx="16" fill="url(#card)" stroke="#e5e7eb"/>
    <text x="16" y="32" font-family="ui-sans-serif, system-ui, -apple-system, Segoe UI, Roboto" font-size="14" fill="#111827">Controls</text>

    <text x="16" y="64" font-family="ui-sans-serif, system-ui, -apple-system, Segoe UI, Roboto" font-size="11" fill="#6b7280">Person</text>
    <rect x="16" y="74" width="360" height="36" rx="10" fill="#ffffff" stroke="#d1d5db"/>
    <text x="28" y="98" font-family="ui-sans-serif, system-ui, -apple-system, Segoe UI, Roboto" font-size="13" fill="#111827">You</text>

    <text x="16" y="134" font-family="ui-sans-serif, system-ui, -apple-system, Segoe UI, Roboto" font-size="11" fill="#6b7280">Planning mode</text>
    <rect x="16" y="144" width="360" height="36" rx="10" fill="#ffffff" stroke="#d1d5db"/>
    <text x="28" y="168" font-family="ui-sans-serif, system-ui, -apple-system, Segoe UI, Roboto" font-size="13" fill="#111827">Manual per session</text>

    <text x="16" y="204" font-family="ui-sans-serif, system-ui, -apple-system, Segoe UI, Roboto" font-size="11" fill="#6b7280">Preferred</text>
    <rect x="16" y="214" width="360" height="84" rx="12" fill="#ffffff" stroke="#d1d5db"/>
    <text x="28" y="240" font-family="ui-monospace, SFMono-Regular, Menlo, Monaco, Consolas, Liberation Mono" font-size="12" fill="#111827">bench, row, core</text>

    <rect x="16" y="314" width="360" height="40" rx="12" fill="#03a9f4"/>
    <text x="110" y="340" font-family="ui-sans-serif, system-ui, -apple-system, Segoe UI, Roboto" font-size="14" fill="#ffffff">Generate</text>

    <rect x="0" y="400" width="392" height="520" rx="16" fill="url(#card)" stroke="#e5e7eb"/>
    <text x="16" y="432" font-family="ui-sans-serif, system-ui, -apple-system, Segoe UI, Roboto" font-size="14" fill="#111827">Latest plan</text>
    <rect x="16" y="450" width="110" height="24" rx="999" fill="#ffffff" stroke="#d1d5db"/>
    <text x="42" y="467" font-family="ui-sans-serif, system-ui, -apple-system, Segoe UI, Roboto" font-size="12" fill="#6b7280">Week 7</text>
    <rect x="16" y="488" width="360" height="410" rx="14" fill="#f3f4f6" stroke="#e5e7eb"/>
    <text x="32" y="522" font-family="ui-monospace, SFMono-Regular, Menlo, Monaco, Consolas, Liberation Mono" font-size="12" fill="#111827">## Full Body A</text>
    <text x="32" y="542" font-family="ui-monospace, SFMono-Regular, Menlo, Monaco, Consolas, Liberation Mono" font-size="12" fill="#111827">- Bench Press: 3 x 5</text>
    <text x="32" y="562" font-family="ui-monospace, SFMono-Regular, Menlo, Monaco, Consolas, Liberation Mono" font-size="12" fill="#111827">- Barbell Row: 3 x 5</text>
    <text x="32" y="582" font-family="ui-monospace, SFMono-Regular, Menlo, Monaco, Consolas, Liberation Mono" font-size="12" fill="#111827">- Split Squat: 3 x 10</text>
    <text x="32" y="612" font-family="ui-monospace, SFMono-Regular, Menlo, Monaco, Consolas, Liberation Mono" font-size="12" fill="#6b7280">…</text>
  </g>
</svg>

