<svg xmlns="http://www.w3.org/2000/svg" width="800" height="1200" viewBox="0 0 800 1200">
  <defs>
    <linearGradient id="bg" x1="0" y1="0" x2="1" y2="1">
      <stop offset="0" stop-color="#f3f4f6"/>
      <stop offset="1" stop-color="#e5e7eb"/>
    </linearGradient>
    <linearGradient id="card" x1="0" y1="0" x2="0" y2="1">
      <stop offset="0" stop-color="#ffffff"/>
      <stop offset="1" stop-color="#fafafa"/>
    </linearGradient>
  </defs>

  <rect width="800" height="1200" fill="url(#bg)"/>

  <!-- Phone frame -->
  <rect x="160" y="40" width="480" height="1120" rx="42" fill="#111827" opacity="0.92"/>
  <rect x="182" y="78" width="436" height="1044" rx="28" fill="#f8fafc"/>

  <!-- Header -->
  <rect x="182" y="78" width="436" height="60" rx="28" fill="#ffffff"/>
  <text x="206" y="116" font-family="ui-sans-serif, system-ui, -apple-system, Segoe UI, Roboto" font-size="18" fill="#111827">Ugeplan</text>

  <!-- Card -->
  <g transform="translate(204,155)">
    <rect x="0" y="0" width="392" height="900" rx="16" fill="url(#card)" stroke="#e5e7eb"/>

    <text x="16" y="32" font-family="ui-sans-serif, system-ui, -apple-system, Segoe UI, Roboto" font-size="16" fill="#111827">Ugeplan</text>

    <!-- Week nav -->
    <rect x="16" y="40" width="34" height="28" rx="10" fill="#ffffff" stroke="#d1d5db"/>
    <text x="28" y="59" font-family="ui-sans-serif, system-ui, -apple-system, Segoe UI, Roboto" font-size="14" fill="#111827">‹</text>
    <rect x="54" y="40" width="170" height="28" rx="10" fill="#ffffff" stroke="#d1d5db"/>
    <text x="66" y="58" font-family="ui-sans-serif, system-ui, -apple-system, Segoe UI, Roboto" font-size="12" fill="#111827">Week 8 (+1)</text>
    <text x="66" y="71" font-family="ui-sans-serif, system-ui, -apple-system, Segoe UI, Roboto" font-size="10" fill="#6b7280">16.02 - 22.02</text>
    <rect x="228" y="40" width="34" height="28" rx="10" fill="#ffffff" stroke="#d1d5db"/>
    <text x="240" y="59" font-family="ui-sans-serif, system-ui, -apple-system, Segoe UI, Roboto" font-size="14" fill="#111827">›</text>

    <!-- Settings -->
    <rect x="334" y="18" width="42" height="30" rx="10" fill="#ffffff" stroke="#d1d5db"/>
    <text x="348" y="38" font-family="ui-sans-serif, system-ui, -apple-system, Segoe UI, Roboto" font-size="16" fill="#111827">⛭</text>

    <!-- People row -->
    <rect x="16" y="76" width="360" height="44" rx="12" fill="#ffffff" stroke="#d1d5db"/>
    <text x="32" y="104" font-family="ui-sans-serif, system-ui, -apple-system, Segoe UI, Roboto" font-size="12" fill="#6b7280" letter-spacing="0.08em">PEOPLE</text>
    <rect x="94" y="88" width="108" height="24" rx="999" fill="#ffffff" stroke="#3b82f6"/>
    <circle cx="112" cy="100" r="10" fill="#0ea5e9"/>
    <text x="108" y="104" font-family="ui-sans-serif, system-ui, -apple-system, Segoe UI, Roboto" font-size="11" fill="#ffffff">N</text>
    <text x="128" y="104" font-family="ui-sans-serif, system-ui, -apple-system, Segoe UI, Roboto" font-size="12" fill="#111827">Nikolaj</text>
    <rect x="208" y="88" width="90" height="24" rx="999" fill="#ffffff" stroke="#d1d5db"/>
    <circle cx="226" cy="100" r="10" fill="#22c55e"/>
    <text x="222" y="104" font-family="ui-sans-serif, system-ui, -apple-system, Segoe UI, Roboto" font-size="11" fill="#ffffff">J</text>
    <text x="242" y="104" font-family="ui-sans-serif, system-ui, -apple-system, Segoe UI, Roboto" font-size="12" fill="#111827">Janice</text>
    <rect x="332" y="92" width="34" height="24" rx="999" fill="#ffffff" stroke="#d1d5db"/>
    <text x="345" y="109" font-family="ui-sans-serif, system-ui, -apple-system, Segoe UI, Roboto" font-size="14" fill="#111827">+</text>

    <!-- Day list (mobile: stacked) -->
    <rect x="16" y="126" width="360" height="322" rx="14" fill="#ffffff" stroke="#e5e7eb"/>

    <!-- Compact day cards (same style as workout items) -->
    <rect x="26" y="136" width="340" height="54" rx="14" fill="#f8fafc" stroke="#e5e7eb"/>
    <rect x="26" y="198" width="340" height="54" rx="14" fill="#ffffff" stroke="#3b82f6"/>
    <rect x="26" y="260" width="340" height="54" rx="14" fill="#f8fafc" stroke="#e5e7eb"/>
    <rect x="26" y="322" width="340" height="54" rx="14" fill="#f8fafc" stroke="#e5e7eb"/>
    <rect x="26" y="384" width="340" height="54" rx="14" fill="#f8fafc" stroke="#e5e7eb"/>

    <text x="40" y="158" font-family="ui-sans-serif, system-ui, -apple-system, Segoe UI, Roboto" font-size="13" fill="#111827">Mandag</text>
    <text x="40" y="176" font-family="ui-sans-serif, system-ui, -apple-system, Segoe UI, Roboto" font-size="12" fill="#6b7280">09.02 • Tap to add</text>
    <text x="40" y="220" font-family="ui-sans-serif, system-ui, -apple-system, Segoe UI, Roboto" font-size="13" fill="#111827">Tirsdag</text>
    <text x="40" y="238" font-family="ui-sans-serif, system-ui, -apple-system, Segoe UI, Roboto" font-size="12" fill="#6b7280">10.02 • Full Body A</text>
    <text x="40" y="282" font-family="ui-sans-serif, system-ui, -apple-system, Segoe UI, Roboto" font-size="13" fill="#111827">Onsdag</text>
    <text x="40" y="300" font-family="ui-sans-serif, system-ui, -apple-system, Segoe UI, Roboto" font-size="12" fill="#6b7280">11.02 • Tap to add</text>
    <text x="40" y="344" font-family="ui-sans-serif, system-ui, -apple-system, Segoe UI, Roboto" font-size="13" fill="#111827">Torsdag</text>
    <text x="40" y="362" font-family="ui-sans-serif, system-ui, -apple-system, Segoe UI, Roboto" font-size="12" fill="#6b7280">12.02 • Tap to add</text>
    <text x="40" y="406" font-family="ui-sans-serif, system-ui, -apple-system, Segoe UI, Roboto" font-size="13" fill="#111827">Fredag</text>
    <text x="40" y="424" font-family="ui-sans-serif, system-ui, -apple-system, Segoe UI, Roboto" font-size="12" fill="#6b7280">13.02 • Tap to add</text>

    <!-- Detail panel -->
    <rect x="16" y="460" width="360" height="412" rx="14" fill="#ffffff" stroke="#e5e7eb"/>
    <rect x="16" y="460" width="4" height="412" rx="14" fill="#0ea5e9"/>
    <text x="32" y="492" font-family="ui-sans-serif, system-ui, -apple-system, Segoe UI, Roboto" font-size="15" fill="#111827">Tirsdag</text>
    <text x="32" y="512" font-family="ui-sans-serif, system-ui, -apple-system, Segoe UI, Roboto" font-size="12" fill="#6b7280">Full Body A • 2026-02-11</text>

    <rect x="32" y="532" width="328" height="70" rx="14" fill="#f8fafc" stroke="#e5e7eb"/>
    <text x="48" y="562" font-family="ui-sans-serif, system-ui, -apple-system, Segoe UI, Roboto" font-size="13" fill="#111827">Back Squat</text>
    <text x="48" y="582" font-family="ui-sans-serif, system-ui, -apple-system, Segoe UI, Roboto" font-size="12" fill="#6b7280">3 x 5 • ~90kg</text>

    <rect x="32" y="614" width="328" height="70" rx="14" fill="#f8fafc" stroke="#e5e7eb"/>
    <text x="48" y="644" font-family="ui-sans-serif, system-ui, -apple-system, Segoe UI, Roboto" font-size="13" fill="#111827">Bench Press</text>
    <text x="48" y="664" font-family="ui-sans-serif, system-ui, -apple-system, Segoe UI, Roboto" font-size="12" fill="#6b7280">3 x 5 • ~75kg</text>

    <rect x="32" y="696" width="328" height="70" rx="14" fill="#f8fafc" stroke="#e5e7eb"/>
    <text x="48" y="726" font-family="ui-sans-serif, system-ui, -apple-system, Segoe UI, Roboto" font-size="13" fill="#111827">Pull-Up</text>
    <text x="48" y="746" font-family="ui-sans-serif, system-ui, -apple-system, Segoe UI, Roboto" font-size="12" fill="#6b7280">3 x 5</text>

    <rect x="32" y="800" width="200" height="42" rx="12" fill="#64748b"/>
    <text x="58" y="827" font-family="ui-sans-serif, system-ui, -apple-system, Segoe UI, Roboto" font-size="14" fill="#ffffff">Replace workout</text>
  </g>
</svg>
