<svg xmlns="http://www.w3.org/2000/svg" width="1400" height="900" viewBox="0 0 1400 900">
  <defs>
    <linearGradient id="bg" x1="0" y1="0" x2="1" y2="1">
      <stop offset="0" stop-color="#f3f4f6"/>
      <stop offset="1" stop-color="#e5e7eb"/>
    </linearGradient>
    <linearGradient id="card" x1="0" y1="0" x2="0" y2="1">
      <stop offset="0" stop-color="#ffffff"/>
      <stop offset="1" stop-color="#fafafa"/>
    </linearGradient>
  </defs>

  <rect width="1400" height="900" fill="url(#bg)"/>

  <!-- Tablet frame -->
  <rect x="70" y="50" width="1260" height="800" rx="28" fill="#111827" opacity="0.9"/>
  <rect x="95" y="80" width="1210" height="740" rx="22" fill="#f8fafc"/>

  <!-- App bar -->
  <rect x="95" y="80" width="1210" height="64" rx="22" fill="#ffffff"/>
  <text x="130" y="122" font-family="ui-sans-serif, system-ui, -apple-system, Segoe UI, Roboto" font-size="22" fill="#111827">Ugeplan</text>
  <text x="235" y="122" font-family="ui-sans-serif, system-ui, -apple-system, Segoe UI, Roboto" font-size="14" fill="#6b7280">Weekly Training card (tablet)</text>

  <!-- Card -->
  <g transform="translate(115,165)">
    <rect x="0" y="0" width="1180" height="610" rx="16" fill="url(#card)" stroke="#e5e7eb"/>

    <!-- Header -->
    <text x="18" y="34" font-family="ui-sans-serif, system-ui, -apple-system, Segoe UI, Roboto" font-size="20" fill="#111827">Ugeplan</text>

    <!-- Week header (no arrows) -->
    <rect x="18" y="46" width="220" height="38" rx="12" fill="#ffffff" stroke="#d1d5db"/>
    <text x="32" y="68" font-family="ui-sans-serif, system-ui, -apple-system, Segoe UI, Roboto" font-size="13" fill="#111827">Week 7</text>
    <text x="32" y="82" font-family="ui-sans-serif, system-ui, -apple-system, Segoe UI, Roboto" font-size="11" fill="#6b7280">09.02 - 15.02</text>

    <rect x="1120" y="46" width="42" height="38" rx="12" fill="#ffffff" stroke="#d1d5db"/>
    <text x="1132" y="71" font-family="ui-sans-serif, system-ui, -apple-system, Segoe UI, Roboto" font-size="16" fill="#111827">⛭</text>

    <!-- People bar -->
    <rect x="18" y="92" width="1144" height="44" rx="12" fill="#ffffff" stroke="#d1d5db" stroke-dasharray="4 4"/>
    <text x="34" y="120" font-family="ui-sans-serif, system-ui, -apple-system, Segoe UI, Roboto" font-size="13" fill="#111827">People</text>
    <circle cx="122" cy="114" r="11" fill="#475569"/>
    <text x="118" y="118" font-family="ui-sans-serif, system-ui, -apple-system, Segoe UI, Roboto" font-size="11" fill="#ffffff">N</text>
    <text x="140" y="118" font-family="ui-sans-serif, system-ui, -apple-system, Segoe UI, Roboto" font-size="13" fill="#111827">Nikolaj</text>
    <circle cx="230" cy="114" r="11" fill="#64748b"/>
    <text x="226" y="118" font-family="ui-sans-serif, system-ui, -apple-system, Segoe UI, Roboto" font-size="11" fill="#ffffff">J</text>
    <text x="248" y="118" font-family="ui-sans-serif, system-ui, -apple-system, Segoe UI, Roboto" font-size="13" fill="#111827">Janice</text>
    <rect x="1108" y="102" width="44" height="24" rx="999" fill="#ffffff" stroke="#d1d5db"/>
    <text x="1127" y="119" font-family="ui-sans-serif, system-ui, -apple-system, Segoe UI, Roboto" font-size="14" fill="#111827">+</text>

    <!-- Layout: left day list -->
    <g transform="translate(0,66)">
    <rect x="18" y="84" width="300" height="506" rx="14" fill="#ffffff" stroke="#d1d5db"/>
    <text x="34" y="114" font-family="ui-sans-serif, system-ui, -apple-system, Segoe UI, Roboto" font-size="13" fill="#111827">Mandag</text>
    <text x="34" y="132" font-family="ui-sans-serif, system-ui, -apple-system, Segoe UI, Roboto" font-size="12" fill="#6b7280">09.02 • Tap to add</text>
    <rect x="236" y="104" width="64" height="20" rx="999" fill="#ffffff" stroke="#d1d5db"/>
    <text x="250" y="119" font-family="ui-sans-serif, system-ui, -apple-system, Segoe UI, Roboto" font-size="11" fill="#6b7280">Empty</text>

    <rect x="18" y="146" width="300" height="64" fill="#ffffff"/>
    <text x="34" y="176" font-family="ui-sans-serif, system-ui, -apple-system, Segoe UI, Roboto" font-size="13" fill="#111827">Tirsdag</text>
    <text x="34" y="194" font-family="ui-sans-serif, system-ui, -apple-system, Segoe UI, Roboto" font-size="12" fill="#6b7280">10.02 • Full Body A</text>
    <rect x="236" y="166" width="64" height="20" rx="999" fill="#ffffff" stroke="#d1d5db"/>
    <text x="246" y="181" font-family="ui-sans-serif, system-ui, -apple-system, Segoe UI, Roboto" font-size="11" fill="#6b7280">Workout</text>
    <rect x="236" y="188" width="64" height="20" rx="999" fill="#ffffff" stroke="#475569"/>
    <text x="250" y="203" font-family="ui-sans-serif, system-ui, -apple-system, Segoe UI, Roboto" font-size="11" fill="#475569">Nikolaj</text>

    <!-- Selected day highlight -->
    <rect x="18" y="146" width="300" height="64" rx="0" fill="#f1f5f9" opacity="0.75"/>
    <rect x="18" y="146" width="4" height="64" fill="#64748b"/>

    <rect x="18" y="210" width="300" height="64" fill="#ffffff"/>
    <text x="34" y="240" font-family="ui-sans-serif, system-ui, -apple-system, Segoe UI, Roboto" font-size="13" fill="#111827">Onsdag</text>
    <text x="34" y="258" font-family="ui-sans-serif, system-ui, -apple-system, Segoe UI, Roboto" font-size="12" fill="#6b7280">11.02 • Tap to add</text>
    <rect x="236" y="230" width="64" height="20" rx="999" fill="#ffffff" stroke="#d1d5db"/>
    <text x="250" y="245" font-family="ui-sans-serif, system-ui, -apple-system, Segoe UI, Roboto" font-size="11" fill="#6b7280">Empty</text>

    <rect x="18" y="274" width="300" height="64" fill="#ffffff"/>
    <text x="34" y="304" font-family="ui-sans-serif, system-ui, -apple-system, Segoe UI, Roboto" font-size="13" fill="#111827">Torsdag</text>
    <text x="34" y="322" font-family="ui-sans-serif, system-ui, -apple-system, Segoe UI, Roboto" font-size="12" fill="#6b7280">12.02 • Tap to add</text>
    <rect x="236" y="294" width="64" height="20" rx="999" fill="#ffffff" stroke="#d1d5db"/>
    <text x="250" y="309" font-family="ui-sans-serif, system-ui, -apple-system, Segoe UI, Roboto" font-size="11" fill="#6b7280">Empty</text>

    <rect x="18" y="338" width="300" height="64" fill="#ffffff"/>
    <text x="34" y="368" font-family="ui-sans-serif, system-ui, -apple-system, Segoe UI, Roboto" font-size="13" fill="#111827">Fredag</text>
    <text x="34" y="386" font-family="ui-sans-serif, system-ui, -apple-system, Segoe UI, Roboto" font-size="12" fill="#6b7280">13.02 • Tap to add</text>
    <rect x="236" y="358" width="64" height="20" rx="999" fill="#ffffff" stroke="#d1d5db"/>
    <text x="250" y="373" font-family="ui-sans-serif, system-ui, -apple-system, Segoe UI, Roboto" font-size="11" fill="#6b7280">Empty</text>

    <rect x="18" y="402" width="300" height="64" fill="#ffffff"/>
    <text x="34" y="432" font-family="ui-sans-serif, system-ui, -apple-system, Segoe UI, Roboto" font-size="13" fill="#111827">Lørdag</text>
    <text x="34" y="450" font-family="ui-sans-serif, system-ui, -apple-system, Segoe UI, Roboto" font-size="12" fill="#6b7280">14.02 • Tap to add</text>
    <rect x="232" y="422" width="72" height="20" rx="999" fill="#ffffff" stroke="#3b82f6"/>
    <text x="246" y="437" font-family="ui-sans-serif, system-ui, -apple-system, Segoe UI, Roboto" font-size="11" fill="#3b82f6">TODAY</text>

    <rect x="18" y="466" width="300" height="64" fill="#ffffff"/>
    <text x="34" y="496" font-family="ui-sans-serif, system-ui, -apple-system, Segoe UI, Roboto" font-size="13" fill="#111827">Søndag</text>
    <text x="34" y="514" font-family="ui-sans-serif, system-ui, -apple-system, Segoe UI, Roboto" font-size="12" fill="#6b7280">15.02 • Tap to add</text>
    <rect x="236" y="486" width="64" height="20" rx="999" fill="#ffffff" stroke="#d1d5db"/>
    <text x="250" y="501" font-family="ui-sans-serif, system-ui, -apple-system, Segoe UI, Roboto" font-size="11" fill="#6b7280">Empty</text>

    <!-- Right detail panel -->
    <rect x="340" y="84" width="822" height="506" rx="14" fill="#ffffff" stroke="#d1d5db"/>
    <rect x="340" y="84" width="4" height="506" rx="14" fill="#475569"/>
    <text x="360" y="118" font-family="ui-sans-serif, system-ui, -apple-system, Segoe UI, Roboto" font-size="16" fill="#111827">Tirsdag</text>
    <text x="360" y="140" font-family="ui-sans-serif, system-ui, -apple-system, Segoe UI, Roboto" font-size="12" fill="#6b7280">Full Body A • 2026-02-11</text>

    <rect x="360" y="160" width="780" height="72" rx="14" fill="#f8fafc" stroke="#e5e7eb"/>
    <text x="380" y="192" font-family="ui-sans-serif, system-ui, -apple-system, Segoe UI, Roboto" font-size="13" fill="#111827">Back Squat</text>
    <text x="380" y="212" font-family="ui-sans-serif, system-ui, -apple-system, Segoe UI, Roboto" font-size="12" fill="#6b7280">3 x 5 • ~90kg</text>

    <rect x="360" y="246" width="780" height="72" rx="14" fill="#f8fafc" stroke="#e5e7eb"/>
    <text x="380" y="278" font-family="ui-sans-serif, system-ui, -apple-system, Segoe UI, Roboto" font-size="13" fill="#111827">Bench Press</text>
    <text x="380" y="298" font-family="ui-sans-serif, system-ui, -apple-system, Segoe UI, Roboto" font-size="12" fill="#6b7280">3 x 5 • ~75kg</text>

    <rect x="360" y="332" width="780" height="72" rx="14" fill="#f8fafc" stroke="#e5e7eb"/>
    <text x="380" y="364" font-family="ui-sans-serif, system-ui, -apple-system, Segoe UI, Roboto" font-size="13" fill="#111827">Pull-Up</text>
    <text x="380" y="384" font-family="ui-sans-serif, system-ui, -apple-system, Segoe UI, Roboto" font-size="12" fill="#6b7280">3 x 5</text>

    <rect x="360" y="516" width="170" height="42" rx="12" fill="#64748b"/>
    <text x="390" y="543" font-family="ui-sans-serif, system-ui, -apple-system, Segoe UI, Roboto" font-size="14" fill="#ffffff">Replace workout</text>
    </g>
  </g>
</svg>
